<?xml version="1.0" encoding="UTF-8" standalone="no"?>
<svg
   xmlns:dc="http://purl.org/dc/elements/1.1/"
   xmlns:cc="http://creativecommons.org/ns#"
   xmlns:rdf="http://www.w3.org/1999/02/22-rdf-syntax-ns#"
   xmlns:svg="http://www.w3.org/2000/svg"
   xmlns="http://www.w3.org/2000/svg"
   xmlns:sodipodi="http://sodipodi.sourceforge.net/DTD/sodipodi-0.dtd"
   xmlns:inkscape="http://www.inkscape.org/namespaces/inkscape"
   version="1.1"
   id="Layer_1"
   x="0px"
   y="0px"
   viewBox="0 0 837.483 1819.369"
   enable-background="new 0 0 837.483 1819.369"
   xml:space="preserve"
   sodipodi:docname="Female-Body-Silhouette-hips.svg"
   inkscape:version="1.0 (4035a4fb49, 2020-05-01)"><metadata
   id="metadata26"><rdf:RDF><cc:Work
       rdf:about=""><dc:format>image/svg+xml</dc:format><dc:type
         rdf:resource="http://purl.org/dc/dcmitype/StillImage" /><dc:title></dc:title></cc:Work></rdf:RDF></metadata><defs
   id="defs24"><marker
     inkscape:isstock="true"
     style="overflow:visible;"
     id="Arrow2Mend"
     refX="0.0"
     refY="0.0"
     orient="auto"
     inkscape:stockid="Arrow2Mend"><path
       transform="scale(0.6) rotate(180) translate(0,0)"
       d="M 8.7185878,4.0337352 L -2.2072895,0.016013256 L 8.7185884,-4.0017078 C 6.9730900,-1.6296469 6.9831476,1.6157441 8.7185878,4.0337352 z "
       style="fill-rule:evenodd;stroke-width:0.625;stroke-linejoin:round;stroke:#e90000;stroke-opacity:1;fill:#e90000;fill-opacity:1"
       id="path872" /></marker><marker
     inkscape:isstock="true"
     style="overflow:visible;"
     id="marker1275"
     refX="0.0"
     refY="0.0"
     orient="auto"
     inkscape:stockid="Arrow2Lend"><path
       transform="scale(1.1) rotate(180) translate(1,0)"
       d="M 8.7185878,4.0337352 L -2.2072895,0.016013256 L 8.7185884,-4.0017078 C 6.9730900,-1.6296469 6.9831476,1.6157441 8.7185878,4.0337352 z "
       style="fill-rule:evenodd;stroke-width:0.625;stroke-linejoin:round;stroke:#e90000;stroke-opacity:1;fill:#e90000;fill-opacity:1"
       id="path1273" /></marker><marker
     inkscape:isstock="true"
     style="overflow:visible;"
     id="Arrow1Mend"
     refX="0.0"
     refY="0.0"
     orient="auto"
     inkscape:stockid="Arrow1Mend"><path
       transform="scale(0.4) rotate(180) translate(10,0)"
       style="fill-rule:evenodd;stroke:#e90000;stroke-width:1pt;stroke-opacity:1;fill:#e90000;fill-opacity:1"
       d="M 0.0,0.0 L 5.0,-5.0 L -12.5,0.0 L 5.0,5.0 L 0.0,0.0 z "
       id="path854" /></marker><marker
     inkscape:isstock="true"
     style="overflow:visible;"
     id="Arrow2Lend"
     refX="0.0"
     refY="0.0"
     orient="auto"
     inkscape:stockid="Arrow2Lend"><path
       transform="scale(1.1) rotate(180) translate(1,0)"
       d="M 8.7185878,4.0337352 L -2.2072895,0.016013256 L 8.7185884,-4.0017078 C 6.9730900,-1.6296469 6.9831476,1.6157441 8.7185878,4.0337352 z "
       style="fill-rule:evenodd;stroke-width:0.625;stroke-linejoin:round;stroke:#e90000;stroke-opacity:1;fill:#e90000;fill-opacity:1"
       id="path866" /></marker><marker
     inkscape:isstock="true"
     style="overflow:visible"
     id="Arrow2Mstart"
     refX="0.0"
     refY="0.0"
     orient="auto"
     inkscape:stockid="Arrow2Mstart"><path
       transform="scale(0.6) translate(0,0)"
       d="M 8.7185878,4.0337352 L -2.2072895,0.016013256 L 8.7185884,-4.0017078 C 6.9730900,-1.6296469 6.9831476,1.6157441 8.7185878,4.0337352 z "
       style="fill-rule:evenodd;stroke-width:0.625;stroke-linejoin:round;stroke:#e90000;stroke-opacity:1;fill:#e90000;fill-opacity:1"
       id="path869" /></marker><marker
     inkscape:isstock="true"
     style="overflow:visible"
     id="Arrow2Lstart"
     refX="0.0"
     refY="0.0"
     orient="auto"
     inkscape:stockid="Arrow2Lstart"><path
       transform="scale(1.1) translate(1,0)"
       d="M 8.7185878,4.0337352 L -2.2072895,0.016013256 L 8.7185884,-4.0017078 C 6.9730900,-1.6296469 6.9831476,1.6157441 8.7185878,4.0337352 z "
       style="fill-rule:evenodd;stroke-width:0.625;stroke-linejoin:round;stroke:#e90000;stroke-opacity:1;fill:#e90000;fill-opacity:1"
       id="path863" /></marker><marker
     inkscape:isstock="true"
     style="overflow:visible;"
     id="Arrow1Lend"
     refX="0.0"
     refY="0.0"
     orient="auto"
     inkscape:stockid="Arrow1Lend"><path
       transform="scale(0.8) rotate(180) translate(12.5,0)"
       style="fill-rule:evenodd;stroke:#e90000;stroke-width:1pt;stroke-opacity:1;fill:#e90000;fill-opacity:1"
       d="M 0.0,0.0 L 5.0,-5.0 L -12.5,0.0 L 5.0,5.0 L 0.0,0.0 z "
       id="path848" /></marker></defs><sodipodi:namedview
   inkscape:document-rotation="0"
   pagecolor="#ffffff"
   bordercolor="#666666"
   borderopacity="1"
   objecttolerance="10"
   gridtolerance="10"
   guidetolerance="10"
   inkscape:pageopacity="0"
   inkscape:pageshadow="2"
   inkscape:window-width="1920"
   inkscape:window-height="1001"
   id="namedview22"
   showgrid="false"
   inkscape:zoom="0.3917642"
   inkscape:cx="-412.83138"
   inkscape:cy="1066.3452"
   inkscape:window-x="2391"
   inkscape:window-y="-9"
   inkscape:window-maximized="1"
   inkscape:current-layer="Layer_1" />
<path
   d="M736.728,849.786c-0.634-1.435-13.566-15.425-33.487-23.292c-4.568-1.94-4.545,2.705-16.944-34.925  c-26.957-72.647-5.661-112.736-51.135-200.791c-6.888-14.322-9.901-24.921-16.16-50.12c-25.397-104.478-6.032-90.98-15.87-135.251  c-17.961-63.049-50.754-59.498-71.782-59.155c-16.944,0.378-45.224-11.699-52.936-19.746  c-10.555-11.486-17.912-20.548-11.679-58.855c0,0,7.037-12.141,9.078-34.125c9.284,11.287,24.572-33.84,16.065-42.691  c-1.745-1.867-5.169-1.236-6.289,1.015c-1.292,1.484-1.315,3.695-2.888,4.964c-2-9.359,3.289-28.498-7.935-56.968  c-5.541-12.289-11.235-15.496-21.547-22.44c-8.401-6.048-28.842-7.595-29.842-7.717h-9.461c-1,0.122-21.441,1.669-29.842,7.717  c-10.312,6.944-16.006,10.151-21.547,22.44c-11.224,28.47-5.935,47.609-7.935,56.968c-1.573-1.269-1.596-3.48-2.888-4.964  c-1.12-2.251-4.544-2.882-6.289-1.015c-8.507,8.851,6.781,53.978,16.065,42.691c2.041,21.984,9.078,34.125,9.078,34.125  c6.233,38.307-1.124,47.369-11.679,58.855c-7.712,8.047-35.992,20.124-52.935,19.746c-21.029-0.343-53.822-3.894-71.782,59.155  c-9.838,44.271,9.527,30.773-15.87,135.251c-6.259,25.199-9.272,35.798-16.16,50.12c-45.474,88.055-24.178,128.144-51.135,200.791  c-12.399,37.63-12.376,32.985-16.944,34.925c-19.921,7.867-32.853,21.857-33.487,23.292c-8.923,20.454-23.328,27.412-19.921,33.844  c0.896,1.702,3.318,2.588,4.944,1.381c5.189,0.91,12.738-4.808,16.127-8.599c4.102-4.706,3.375-7.457,11.332-13.86  c1.824,2.047-2.155,20.335-3.12,23.398c-4.877,14.729-26.567,49.619-17.595,54.417c0.945,0.4,2.227,0.955,3.073,0.089  c1.553-1.53,3.53-2.604,4.841-4.372c8.025-10.218,17.566-34.36,24.059-39.238c3.279,0.224,1.596,2.346-4.475,22.532  c-3.673,13.084-5.142,19.941-5.142,19.941c-10.126,30.466,6.229,25.716,11.501,6.808c0.448-1.537,9.722-26.912,10.129-28.16  c1.241-3.291,4.602-17.806,8.801-14.872c0.646,2.469-0.335,3.044-3.536,31.521c-2.6,21.813-3.236,8.789-2.713,26.425  c0.079,2.164,4.439,3.257,6.282,2.115c10.539-9.723,12.692-57.611,18.074-61.022c3.669,4.293,4.272,33.754,5.982,39.221  c2.652,9.705,7.446,4.802,7.981,3.239c3.825-9.324-0.19-30.536,0.628-45.388c0,0,4.369-14.53,7.198-38.676  c4.176-45.514-17.861,13.267,48.59-167.185c0,0,5.299-10.218,13.794-30.791c9.81-21.31,5.988-35.652,19.766-73.451  c0.361-1,16.239-47.758,24.363-68.15c45.673,232.645-9.743,77.068-28.904,331.531c-5.708,105.042,1.862,76.707,18.19,223.544  c31.719,289.304-15.087,130.161,35.652,384.312c10.99,51.495,9.837,44.86,11.854,56.284c2.28,21.363-1.788,21.528-1.679,31.313  c-0.699,24.031,5.964,8.574-1.712,52.53c-4.993,24.181-4.913,9.214-7.677,37.417c-3.463,13.977-13.912,52.732,0.856,52.45  c1.286,7.64,5.541,9.156,9.756,6.712c-0.684,2.455,1.381,4.293,2.766,6.011c4.813,1.322,4.76,1.029,6.828-0.555  c1.495,5.791,5.173,5.742,6.748,6.16c4.768,1.476,5.904-11.237,6.781-16.16c0.856-0.046,1.705-0.096,2.551-0.129  c-1.072,3.151-7.161,15.833,2.634,16.835c7.651,1.238,8.542,0.168,12.727-3.791c6.992-7.01,5.41-8.94,6.623-20.685  c0.191-2.384,5.685-6.58,0.872-37.642c-1.855-15.952-0.832,2.69,0.304-35.715c0.371-16.594,5.685-19.576,6.408-31.349  c-6.493-27.396-1.465-14.55-4.045-30.51c-6.145-34.313-7.105-27.255,0.575-107.316c6.987-65.839,14.147-68.677,7.72-136.864  c-14.296-110.15-0.224-68.945,1.451-126.216c1.503-67.36-4.198-108.808,3.103-168.203c4.314-34.735,12.351-68.835,12.215-90.227  c2.948-3.639,4.984-7.885,7.168-11.993c3.172-6.203,2.655-0.513,2.627-35.675c1.424-0.218,2.885-0.281,4.27-0.677  c0.162-0.334,0.307-0.661,0.436-0.985c0.007,0.007,0.014,0.015,0.022,0.023c0.008-0.008,0.015-0.016,0.022-0.023  c0.129,0.324,0.274,0.651,0.436,0.985c1.385,0.396,2.846,0.459,4.27,0.677c-0.028,35.162-0.545,29.472,2.627,35.675  c2.184,4.108,4.22,8.354,7.168,11.993c-0.136,21.392,7.901,55.493,12.215,90.227c7.301,59.394,1.6,100.842,3.103,168.203  c1.675,57.27,15.747,16.066,1.451,126.216c-6.427,68.186,0.733,71.025,7.72,136.864c7.68,80.061,6.72,73.003,0.575,107.316  c-2.58,15.96,2.448,3.114-4.045,30.51c0.723,11.773,6.037,14.755,6.408,31.349c1.136,38.405,2.159,19.763,0.304,35.715  c-4.813,31.062,0.681,35.258,0.872,37.642c1.213,11.745-0.369,13.675,6.623,20.685c4.185,3.959,5.076,5.029,12.727,3.791  c9.795-1.002,3.706-13.684,2.634-16.835c0.846,0.033,1.695,0.083,2.551,0.129c0.877,4.923,2.013,17.636,6.781,16.16  c1.575-0.418,5.253-0.369,6.748-6.16c2.068,1.584,2.015,1.877,6.828,0.555c1.385-1.718,3.45-3.556,2.766-6.011  c4.215,2.444,8.47,0.928,9.756-6.712c14.768,0.282,4.319-38.473,0.856-52.45c-2.764-28.203-2.684-13.236-7.677-37.417  c-7.676-43.956-1.013-28.499-1.712-52.53c0.109-9.785-3.959-9.95-1.679-31.313c2.017-11.424,0.864-4.789,11.854-56.284  c50.739-254.151,3.933-95.007,35.652-384.312c16.328-146.837,23.898-118.502,18.19-223.544  c-19.161-254.463-74.576-98.886-28.904-331.531c8.124,20.392,24.002,67.15,24.363,68.15c13.778,37.8,9.956,52.142,19.766,73.451  c8.495,20.573,13.794,30.791,13.794,30.791c66.451,180.451,44.414,121.671,48.59,167.185c2.829,24.146,7.198,38.676,7.198,38.676  c0.818,14.852-3.197,36.064,0.628,45.388c0.535,1.563,5.329,6.466,7.981-3.239c1.71-5.467,2.313-34.928,5.982-39.221  c5.382,3.411,7.535,51.3,18.074,61.022c1.843,1.142,6.203,0.049,6.282-2.115c0.523-17.636-0.113-4.612-2.713-26.425  c-3.201-28.477-4.182-29.052-3.536-31.521c4.199-2.934,7.56,11.581,8.801,14.872c0.407,1.248,9.681,26.623,10.129,28.16  c5.272,18.908,21.627,23.658,11.501-6.808c0,0-1.469-6.857-5.142-19.941c-6.071-20.186-7.754-22.308-4.475-22.532  c6.493,4.878,16.034,29.02,24.059,39.238c1.311,1.768,3.288,2.842,4.841,4.372c0.846,0.866,2.128,0.311,3.073-0.089  c8.972-4.798-12.718-39.688-17.595-54.417c-0.965-3.063-4.944-21.351-3.12-23.398c7.957,6.403,7.23,9.154,11.332,13.86  c3.389,3.791,10.938,9.509,16.127,8.599c1.626,1.207,4.048,0.321,4.944-1.381C760.056,877.198,745.651,870.24,736.728,849.786z"
   id="path19" />
<path
   style="fill:#e9c6af;stroke-width:1.80493"
   d="m 354.89638,1707.9815 c -2.88226,-0.7402 -3.21956,-2.0383 -2.29069,-8.8153 1.42273,-10.38 -1.44142,-10.2568 -4.06815,0.1749 -2.06329,8.194 -6.43306,10.9581 -8.56022,5.4148 -0.57143,-1.4891 -3.00808,-2.7074 -5.41479,-2.7074 -2.40673,0 -4.84339,-1.2183 -5.41479,-2.7074 -0.57142,-1.4891 -2.60197,-2.7074 -4.51233,-2.7074 -1.91037,0 -4.00358,-1.4214 -4.65159,-3.1586 -0.648,-1.7373 -2.65306,-4.22 -4.45568,-5.5171 -4.20336,-3.0248 -4.4125,-19.6756 -0.45779,-36.4475 1.52147,-6.4526 3.43987,-16.1993 4.26312,-21.6592 0.82323,-5.4599 2.78822,-14.8004 4.36663,-20.7567 4.27429,-16.1292 6.33967,-36.8366 4.68547,-46.9761 -0.86043,-5.2741 -0.66508,-14.9324 0.47365,-23.4161 2.14483,-15.9794 3.13962,-9.254 -12.94858,-87.5391 -4.99825,-24.3214 -12.06836,-61.2774 -15.71134,-82.1243 l -6.62362,-37.9035 -0.35626,-68.5873 c -0.47363,-91.1861 -8.51587,-183.164 -25.39342,-290.42014 -7.68325,-48.82672 -7.59092,-98.98652 0.30759,-167.12947 6.04072,-52.11511 14.00277,-83.41688 29.9442,-117.72168 12.49329,-26.88464 13.82332,-36.5341 9.89628,-71.79815 -2.69237,-24.17714 -7.75493,-55.45888 -14.008,-86.55612 -1.90348,-9.4662 -2.06924,-9.67657 -4.26707,-5.41479 -6.60348,12.80479 -30.14312,85.14447 -34.34791,105.55461 -3.50127,16.99527 -7.54655,29.5941 -15.29322,47.63011 -9.98541,23.24827 -41.75531,108.72453 -51.45464,138.43764 -3.50039,10.72313 -4.51659,17.65895 -4.56554,31.1609 -0.0346,9.55223 -1.39778,23.86543 -3.0292,31.80712 -1.78925,8.71002 -3.05201,24.1213 -3.18243,38.83988 -0.20707,23.36868 -1.06898,28.84498 -4.53987,28.84498 -2.29969,0 -3.30989,-4.32714 -5.42862,-23.25329 -2.22176,-19.84653 -4.24219,-25.19225 -6.88969,-18.22895 -0.9501,2.4989 -3.47104,13.31227 -5.60208,24.02969 -4.42581,22.25818 -8.48762,33.69692 -11.96552,33.69692 -4.45484,0 -4.55691,-3.375 -0.87377,-28.89153 4.42399,-30.64902 4.43545,-31.09063 0.78725,-30.35225 -1.89165,0.38284 -5.81114,8.74154 -11.39562,24.30225 -9.07131,25.27647 -13.5215,33.82512 -16.97108,32.60079 -3.37028,-1.1962 -1.90979,-11.78823 5.01315,-36.3574 3.51049,-12.45851 6.3827,-23.94182 6.3827,-25.51846 0,-5.86653 -4.53024,-1.00183 -12.84294,13.79109 -13.557389,24.12615 -17.582927,29.42243 -20.514081,26.98978 -3.222363,-2.67431 -0.982779,-10.23771 10.624591,-35.88074 6.39755,-14.13348 8.70088,-21.63332 9.42352,-30.6838 l 0.95641,-11.97825 -5.35842,5.67359 c -2.94713,3.12049 -6.0564,6.80468 -6.90949,8.18711 -2.864221,4.64149 -11.925988,10.50585 -16.233915,10.50585 -5.757234,0 -5.43871,-3.94868 0.904912,-11.218 2.845604,-3.26086 8.097801,-10.51753 11.671548,-16.12591 7.814925,-12.26421 16.393795,-19.67971 31.315635,-27.06894 6.13797,-3.03952 11.68026,-6.86303 12.31619,-8.49673 5.70752,-14.66249 16.21987,-47.25212 19.00669,-58.92317 1.89632,-7.94169 5.52635,-30.6838 8.06673,-50.53803 6.92719,-54.13917 11.57044,-71.40516 29.96013,-111.40722 11.03785,-24.01 16.36849,-40.72892 24.04141,-75.40299 7.7679,-35.10326 10.04706,-53.73528 10.05467,-82.19631 0.008,-30.17905 2.0114,-40.99861 11.12821,-60.10119 12.45378,-26.09454 25.19795,-34.05666 58.14699,-36.32829 35.09944,-2.41991 56.3982,-12.52318 66.7183,-31.6485 5.58626,-10.3525 5.56702,-40.59623 -0.035,-55.12128 -2.12084,-5.49892 -4.43714,-13.87286 -5.14735,-18.60876 -0.93342,-6.22451 -1.97667,-8.34771 -3.76456,-7.66163 -6.23421,2.39228 -15.13368,-16.20885 -15.13368,-31.63144 0,-9.28955 2.84453,-12.96163 6.33882,-8.18292 3.73157,5.10323 4.48973,3.40946 4.52209,-10.1026 0.0406,-16.98705 3.99936,-35.32319 10.01052,-46.36768 19.52242,-35.86913 88.1028,-35.43018 106.78752,0.6835 4.80741,9.29172 7.71981,22.73812 8.91756,41.17186 0.62889,9.67893 1.54038,17.59806 2.02551,17.59806 0.48513,0 1.86366,-1.34241 3.06338,-2.98314 5.47276,-7.48445 8.50851,6.8317 4.50496,21.24475 -2.47506,8.91037 -9.53321,18.84433 -12.97188,18.25722 -2.09721,-0.35807 -3.1565,1.7325 -4.11432,8.11979 -0.70949,4.7311 -2.86903,12.66418 -4.799,17.62905 -4.60696,11.85144 -6.42326,37.77631 -3.40251,48.5654 6.26335,22.3705 31.02616,36.38681 68.8453,38.96798 36.78919,2.51088 50.47527,12.7377 64.08314,47.88563 4.55266,11.75915 4.95565,15.14168 6.12282,51.3936 1.07807,33.48359 2.02931,42.541 6.93561,66.03831 8.54688,40.93285 15.51683,63.79002 27.131,88.97312 18.24771,39.56664 22.64897,56.19484 30.00578,113.36321 5.4922,42.67886 12.11669,68.94498 27.11267,107.50189 0.67566,1.73723 6.21795,5.55698 12.31619,8.48837 13.82974,6.64782 23.52006,14.61244 29.48669,24.23547 2.5358,4.08974 7.88512,11.73598 11.88743,16.99164 7.81624,10.26401 7.41618,14.47929 -1.16967,12.32439 -4.34102,-1.08953 -6.56448,-3.09583 -19.24754,-17.36781 l -5.61394,-6.31725 0.79614,11.84656 c 0.63627,9.46801 2.83644,16.39086 10.9581,34.47977 5.58909,12.44827 10.16199,24.73513 10.16199,27.30414 0,11.52572 -6.19076,5.6542 -19.59027,-18.58012 -7.96947,-14.41357 -11.68223,-19.85423 -13.54867,-19.85423 -2.31883,0 -1.0254,7.38301 4.95498,28.2833 7.90504,27.62662 8.66986,31.64192 6.6318,34.81747 -3.04441,4.74358 -8.29706,-2.57496 -14.58175,-20.31681 -11.63922,-32.85785 -12.82738,-35.56424 -15.61349,-35.56424 -2.98644,0 -2.71554,5.06824 2.02598,37.90352 2.36686,16.39066 1.94515,21.65916 -1.7336,21.65916 -3.46063,0 -7.84067,-12.63216 -12.76694,-36.82013 -6.40728,-31.45991 -8.55451,-32.11762 -11.64013,-3.56551 -2.18703,20.23721 -3.08069,24.14127 -5.52605,24.14127 -3.74477,0 -5.38887,-10.08921 -4.24638,-26.05881 0.92185,-12.88594 0.36515,-20.49395 -2.62336,-35.85164 -2.17954,-11.20049 -3.79353,-26.61153 -3.79353,-36.22223 0,-9.99332 -1.15716,-20.67435 -2.87429,-26.5311 -5.85288,-19.96263 -42.99893,-120.71672 -53.29461,-144.55504 -7.80426,-18.06976 -11.84378,-30.52903 -15.1309,-46.66887 -4.05523,-19.91115 -13.42475,-49.57712 -29.89462,-94.65292 -7.0346,-19.25275 -6.91149,-19.41032 -13.33484,17.06597 -10.82842,61.49153 -13.60258,90.42025 -10.21361,106.50723 1.14832,5.4509 6.50102,19.65734 11.8949,31.56988 11.99295,26.48678 17.88233,46.40342 23.48367,79.4169 6.99418,41.22257 10.46027,83.02019 10.62692,128.15 0.14747,39.95428 -0.13176,43.41142 -7.43508,92.05141 -17.08943,113.81453 -25.10993,211.43933 -22.98437,279.76403 0.99253,31.9043 0.654,44.1427 -1.7225,62.2701 -4.3913,33.4959 -14.70427,89.7711 -28.77706,157.0289 -6.11382,29.2197 -6.21773,30.4451 -5.50933,64.9775 0.43624,21.265 1.72454,39.4826 3.25483,46.0257 1.39305,5.9562 3.53985,15.7028 4.77067,21.6591 11.08726,53.6542 11.58674,61.1664 4.4779,67.3474 -2.48178,2.1579 -4.51232,4.741 -4.51232,5.7403 0,0.9993 -1.64993,1.8169 -3.6665,1.8169 -2.0166,0 -4.13403,1.2183 -4.70543,2.7074 -0.57143,1.4891 -2.68998,2.7074 -4.70795,2.7074 -2.01794,0 -4.65635,1.3503 -5.86313,3.0006 -3.41236,4.6667 -7.64236,1.623 -9.01218,-6.4848 -0.68253,-4.04 -2.05321,-7.3454 -3.04592,-7.3454 -1.09998,0 -1.33751,2.7667 -0.60816,7.0836 1.0217,6.0474 0.63886,7.3822 -2.61691,9.1247 -7.91243,4.2345 -15.72066,-2.3369 -18.64539,-15.692 -1.04049,-4.7512 -1.97156,-27.7256 -2.06905,-51.0543 -0.14854,-35.5313 -0.67957,-43.684 -3.27206,-50.2286 -3.314,-8.366 -3.4641,-5.9541 3.13126,-50.3147 1.50616,-10.1304 2.73788,-23.532 2.73716,-29.7813 -0.002,-15.5426 -6.32713,-79.6544 -11.00428,-111.536 -4.99254,-34.0313 -4.94744,-66.6085 0.15487,-111.9056 4.33385,-38.4747 4.12143,-62.5484 -0.73266,-83.0268 -2.2686,-9.5707 -2.78782,-25.5788 -2.81851,-86.8966 -0.0402,-80.3567 -0.8951,-94.002 -9.14332,-145.93929 -2.91658,-18.36516 -5.30983,-36.85544 -5.31831,-41.0895 -0.0108,-5.19684 -1.77486,-10.81586 -5.43021,-17.29277 -4.84647,-8.58746 -5.41479,-11.21468 -5.41479,-25.03116 0,-13.18622 -0.46047,-15.55612 -3.15862,-16.25589 -6.73401,-1.74652 -7.67095,0.23165 -7.67095,16.1958 0,13.88325 -0.56379,16.49576 -5.41479,25.09125 -3.43361,6.08402 -5.41479,12.15293 -5.41479,16.58701 0,3.84587 -2.95779,25.17891 -6.57289,47.40675 l -6.57283,40.4142 -1.29608,92.9539 c -1.08644,77.9183 -1.77152,94.5596 -4.23527,102.881 -3.97862,13.4378 -3.76203,38.836 0.65414,76.7095 4.61893,39.6122 4.5955,75.5227 -0.0708,108.2957 -5.01547,35.2265 -10.78171,94.3614 -10.80321,110.791 -0.0162,12.3928 2.87194,37.6548 7.16815,62.6984 1.24792,7.2743 0.82628,12.0754 -1.98137,22.5616 -3.09499,11.5594 -3.50586,18.2138 -3.10714,50.3219 0.52957,42.643 -1.10449,54.6658 -8.26717,60.8269 -4.83564,4.1595 -6.22957,4.4784 -12.51636,2.8638 z"
   id="path28" /><path
   id="path18"
   d="m 275.97683,826.43733 c 287.09666,0 287.09666,0 287.09666,0"
   style="fill:none;stroke:#e90000;stroke-width:6.16329;stroke-linecap:butt;stroke-linejoin:miter;stroke-miterlimit:4;stroke-dasharray:36.9798, 36.9798;stroke-dashoffset:0;stroke-opacity:1;marker-start:url(#Arrow2Mstart);marker-mid:url(#Arrow2Lend);marker-end:url(#Arrow2Mend)" /></svg>
